<svg xmlns="http://www.w3.org/2000/svg" viewBox="0 0 327 153">
    <path fill="#64FF64" d="M11.442312 109.468487 L0.670304 22.671142 L0 17.269946 L10.802164 15.929365 L22.244489 108.12796 L11.442312 109.468487 Z M26.588874 97.54751 L49.273776 41.707767 L51.322197 36.665573 L61.406856 40.762413 L39.591642 94.461228 L71.248217 122.160724 L64.080368 130.352621 L26.588874 97.54751 Z M134.609918 82.101879 L124.58711 1.340635 L135.389287 0 L148.921151 109.036711 L104.306846 70.105587 L114.329599 150.86694 L103.527476 152.207466 L89.995612 43.170809 L134.609918 82.101879 Z M191.586978 82.101933 L201.609759 1.340581 L190.807581 0 L177.275745 109.036766 L221.89005 70.105641 L211.867242 150.86694 L222.66942 152.20752 L236.201283 43.170809 L191.586978 82.101933 Z M299.608022 97.547564 L276.923147 41.707821 L274.874672 36.665464 L264.790039 40.762359 L286.605281 94.461282 L254.948679 122.160778 L262.116501 130.352567 L299.608022 97.547564 Z M314.754557 109.468487 L325.526619 22.671142 L326.196936 17.27 L315.394705 15.929311 L303.952433 108.127906 L314.754557 109.468487 Z" />
</svg>