<svg xmlns="http://www.w3.org/2000/svg" viewBox="0 0 756 252">
    <g fill="#64FF64">
        <rect width="36" height="180" />
        <rect x="72" y="36" width="36" height="108" />
        <rect x="72" y="36" width="72" height="36" />
        <rect x="72" y="108" width="72" height="36" />
        <rect x="108" width="36" height="72" />
        <rect x="108" y="108" width="36" height="72" />
        <rect x="108" width="72" height="36" />
        <rect x="108" y="144" width="72" height="36" />
        <rect x="216" width="36" height="90" />
        <rect x="288" y="108" width="180" height="36" />
        <rect x="324" y="108" width="108" height="72" />
        <rect x="288" width="36" height="144" />
        <rect x="360" width="36" height="180" />
        <rect x="432" width="36" height="144" />
        <rect x="504" width="36" height="180" />
        <rect x="576" width="36" height="180" />
        <rect x="576" width="36" height="252" />
        <rect x="576" width="180" height="36" />
        <rect x="652" y="108" width="72" height="36" />
        <rect x="688" y="72" width="36" height="72" />
        <rect x="688" y="72" width="72" height="36" />
        <rect x="724" width="36" height="108" />
    </g>
</svg>