<svg xmlns="http://www.w3.org/2000/svg" viewBox="0 0 238 153">
    <path fill="#64FF64" d="M11.442312 109.468487 L0.670304 22.671142 L0 17.269946 L10.802164 15.929365 L22.244489 108.12796 L11.442312 109.468487 Z M26.588874 97.54751 L49.273776 41.707767 L51.322197 36.665573 L61.406856 40.762413 L39.591642 94.461228 L71.248217 122.160724 L64.080368 130.352621 L26.588874 97.54751 Z" />
    <path transform="translate(-88)" fill="#64FF64" d="M191.586978 82.101933 L201.609759 1.340581 L190.807581 0 L177.275745 109.036766 L221.89005 70.105641 L211.867242 150.86694 L222.66942 152.20752 L236.201283 43.170809 L191.586978 82.101933 Z" />
    <path transform="translate(88)" fill="#64FF64" d="M134.609918 82.101879 L124.58711 1.340635 L135.389287 0 L148.921151 109.036711 L104.306846 70.105587 L114.329599 150.86694 L103.527476 152.207466 L89.995612 43.170809 L134.609918 82.101879 Z" />
</svg>